<?xml version="1.0" encoding="UTF-8" standalone="no"?>
<!-- Created with Inkscape (http://www.inkscape.org/) -->

<svg
   xmlns:dc="http://purl.org/dc/elements/1.1/"
   xmlns:cc="http://creativecommons.org/ns#"
   xmlns:rdf="http://www.w3.org/1999/02/22-rdf-syntax-ns#"
   xmlns:svg="http://www.w3.org/2000/svg"
   xmlns="http://www.w3.org/2000/svg"
   xmlns:sodipodi="http://sodipodi.sourceforge.net/DTD/sodipodi-0.dtd"
   xmlns:inkscape="http://www.inkscape.org/namespaces/inkscape"
   version="1.1"
   id="svg827"
   width="99.698387"
   height="100"
   viewBox="0 0 99.698387 100"
   sodipodi:docname="bootstrap100.svg"
   inkscape:version="0.92.5 (2060ec1f9f, 2020-04-08)">
  <metadata
     id="metadata833">
    <rdf:RDF>
      <cc:Work
         rdf:about="">
        <dc:format>image/svg+xml</dc:format>
        <dc:type
           rdf:resource="http://purl.org/dc/dcmitype/StillImage" />
        <dc:title></dc:title>
      </cc:Work>
    </rdf:RDF>
  </metadata>
  <defs
     id="defs831" />
  <sodipodi:namedview
     pagecolor="#ffffff"
     bordercolor="#666666"
     borderopacity="1"
     objecttolerance="10"
     gridtolerance="10"
     guidetolerance="10"
     inkscape:pageopacity="0"
     inkscape:pageshadow="2"
     inkscape:window-width="1920"
     inkscape:window-height="1001"
     id="namedview829"
     showgrid="false"
     inkscape:zoom="0.39202658"
     inkscape:cx="269.49891"
     inkscape:cy="665.6324"
     inkscape:window-x="-9"
     inkscape:window-y="-9"
     inkscape:window-maximized="1"
     inkscape:current-layer="svg827" />
  <path
     id="path5085"
     style="fill:#242423;stroke-width:0.16613376"
     d="M 13.463932,99.767067 C 6.5240061,98.597057 1.2426137,93.163187 0.18769419,86.107537 c -0.25025892,-1.67382 -0.25025892,-70.53072 0,-72.20454 C 1.0954374,7.8316965 5.1293828,2.8964965 10.774729,0.95063654 c 2.880881,-0.993 1.128047,-0.95037000208 39.074459,-0.95037000208 28.998749,0 35.043459,0.0387000021 36.234256,0.23201000208 7.064041,1.14672996 12.361067,6.53981996 13.427247,13.67072046 0.250264,1.67382 0.250264,70.53072 0,72.20454 -0.907755,6.07129 -4.941699,11.00649 -10.587041,12.95236 -2.884829,0.994363 -1.098974,0.951853 -39.240595,0.93396 -27.388946,-0.0128 -35.241732,-0.062 -36.219123,-0.22679 z m 42.321399,-18.86177 c 4.662029,-0.28356 8.121698,-0.95348 11.108899,-2.1511 5.880056,-2.3574 9.162277,-6.45927 9.959337,-12.44647 1.131039,-8.49577 -2.340177,-15.28821 -9.149568,-17.90386 -0.680517,-0.2614 -1.238228,-0.51999 -1.239357,-0.57465 -0.0017,-0.0547 0.315654,-0.23745 0.703991,-0.40622 3.623776,-1.57487 6.187287,-4.7726 7.032293,-8.77207 0.493617,-2.33635 0.236508,-6.74188 -0.527076,-9.03179 -1.671522,-5.01263 -5.974801,-8.2329 -12.830012,-9.60108 -3.946923,-0.78774 -4.137262,-0.79592 -20.17354,-0.86674 l -15.242771,-0.0673 v 30.88338 c 0,16.98586 0.04984,30.93322 0.110756,30.99413 0.175825,0.17583 27.25963,0.12548 30.247048,-0.0562 z M 41.708634,62.060867 v -8.06839 l 5.690081,3e-5 c 5.909212,2e-5 7.290648,0.11881 8.951387,0.76968 2.653688,1.04002 4.159907,3.02837 4.432848,5.85182 0.476372,4.92781 -1.364556,7.86859 -5.700548,9.10625 -0.839557,0.23964 -1.973005,0.29434 -7.185285,0.34676 l -6.188483,0.0622 z m 0,-25.61373 v -6.5805 l 5.440881,0.079 c 4.342138,0.0631 5.634808,0.13368 6.401217,0.3497 3.204122,0.90312 4.774186,2.95781 4.769484,6.2417 -0.0038,2.7144 -1.118562,4.64632 -3.262252,5.65397 -1.511302,0.7104 -2.750012,0.83663 -8.210048,0.83663 h -5.139282 z"
     inkscape:connector-curvature="0" />
</svg>
