<?xml version="1.0" encoding="UTF-8" standalone="no"?>
<svg
   xmlns:dc="http://purl.org/dc/elements/1.1/"
   xmlns:cc="http://creativecommons.org/ns#"
   xmlns:rdf="http://www.w3.org/1999/02/22-rdf-syntax-ns#"
   xmlns:svg="http://www.w3.org/2000/svg"
   xmlns="http://www.w3.org/2000/svg"
   xmlns:sodipodi="http://sodipodi.sourceforge.net/DTD/sodipodi-0.dtd"
   xmlns:inkscape="http://www.inkscape.org/namespaces/inkscape"
   version="1.0"
   width="53.469505pt"
   height="75pt"
   viewBox="0 0 53.469505 75"
   preserveAspectRatio="xMidYMid meet"
   id="svg843"
   sodipodi:docname="css100.svg"
   inkscape:version="0.92.5 (2060ec1f9f, 2020-04-08)">
  <metadata
     id="metadata849">
    <rdf:RDF>
      <cc:Work
         rdf:about="">
        <dc:format>image/svg+xml</dc:format>
        <dc:type
           rdf:resource="http://purl.org/dc/dcmitype/StillImage" />
        <dc:title></dc:title>
      </cc:Work>
    </rdf:RDF>
  </metadata>
  <defs
     id="defs847" />
  <sodipodi:namedview
     pagecolor="#ffffff"
     bordercolor="#666666"
     borderopacity="1"
     objecttolerance="10"
     gridtolerance="10"
     guidetolerance="10"
     inkscape:pageopacity="0"
     inkscape:pageshadow="2"
     inkscape:window-width="1920"
     inkscape:window-height="1001"
     id="namedview845"
     showgrid="false"
     inkscape:zoom="1.1835938"
     inkscape:cx="242.66666"
     inkscape:cy="341.06669"
     inkscape:window-x="-9"
     inkscape:window-y="-9"
     inkscape:window-maximized="1"
     inkscape:current-layer="svg843" />
  <g
     transform="matrix(0.01468285,0,0,-0.01468285,-10.865309,75.029364)"
     id="g841"
     style="fill:#242423;stroke:none">
    <path
       d="m 1480,4770 v -340 h 280 280 v 110 110 h -160 -160 v 110 110 h 160 160 v 120 120 h -280 -280 z"
       id="path833"
       inkscape:connector-curvature="0" />
    <path
       d="m 2280,4992 v -117 l 105,-105 c 58,-58 105,-108 105,-112 0,-5 -47,-8 -105,-8 h -105 v -110 -110 h 285 285 v 108 107 l -110,110 -110,110 107,5 108,5 3,118 3,117 h -286 -285 z"
       id="path835"
       inkscape:connector-curvature="0" />
    <path
       d="m 3080,4992 v -117 l 105,-105 c 58,-58 105,-108 105,-112 0,-5 -47,-8 -105,-8 h -105 v -110 -110 h 280 280 v 112 113 l -107,107 -108,108 h 108 107 v 120 120 h -280 -280 z"
       id="path837"
       inkscape:connector-curvature="0" />
    <path
       d="m 740,4088 c 0,-12 9,-118 20,-237 21,-229 80,-864 155,-1681 25,-272 66,-711 90,-975 24,-264 51,-549 58,-633 8,-84 16,-155 19,-158 3,-2 279,-78 614,-169 335,-90 666,-179 736,-198 l 128,-35 722,194 c 398,107 732,198 744,203 18,8 22,23 33,152 6,79 32,358 56,619 24,261 65,697 90,968 25,270 65,714 90,985 25,270 56,601 68,735 13,134 21,245 18,247 -2,3 -823,5 -1823,5 H 740 Z m 2934,-953 c -12,-118 -25,-218 -28,-223 -3,-5 -246,-112 -541,-238 l -536,-229 521,-3 c 482,-2 520,-3 520,-19 0,-10 -20,-247 -45,-528 -25,-280 -51,-584 -59,-673 -8,-90 -16,-166 -19,-168 -2,-2 -143,-45 -313,-94 -170,-50 -377,-111 -461,-135 l -152,-45 -183,55 c -101,30 -311,92 -468,138 l -285,84 -22,254 c -12,140 -25,298 -29,352 l -7,97 h 227 c 172,0 228,-3 231,-12 3,-7 12,-89 20,-182 8,-93 16,-170 17,-172 2,-1 114,-30 250,-65 l 247,-62 238,67 c 131,37 247,71 259,75 19,8 21,22 32,227 7,121 15,252 19,291 l 6,73 -789,2 -789,3 -12,135 c -6,74 -13,172 -15,218 l -3,83 548,228 c 301,125 550,231 554,234 3,4 -253,7 -570,7 h -576 l -6,33 c -9,54 -45,359 -45,384 v 23 h 1143 1143 z"
       id="path839"
       inkscape:connector-curvature="0" />
  </g>
</svg>
