<?xml version="1.0" encoding="UTF-8" standalone="no"?>
<svg
   xmlns:dc="http://purl.org/dc/elements/1.1/"
   xmlns:cc="http://creativecommons.org/ns#"
   xmlns:rdf="http://www.w3.org/1999/02/22-rdf-syntax-ns#"
   xmlns:svg="http://www.w3.org/2000/svg"
   xmlns="http://www.w3.org/2000/svg"
   xmlns:sodipodi="http://sodipodi.sourceforge.net/DTD/sodipodi-0.dtd"
   xmlns:inkscape="http://www.inkscape.org/namespaces/inkscape"
   version="1.0"
   width="75.006554pt"
   height="75pt"
   viewBox="0 0 75.006554 75"
   preserveAspectRatio="xMidYMid meet"
   id="svg1424"
   sodipodi:docname="git100.svg"
   inkscape:version="0.92.5 (2060ec1f9f, 2020-04-08)">
  <metadata
     id="metadata1430">
    <rdf:RDF>
      <cc:Work
         rdf:about="">
        <dc:format>image/svg+xml</dc:format>
        <dc:type
           rdf:resource="http://purl.org/dc/dcmitype/StillImage" />
        <dc:title></dc:title>
      </cc:Work>
    </rdf:RDF>
  </metadata>
  <defs
     id="defs1428" />
  <sodipodi:namedview
     pagecolor="#ffffff"
     bordercolor="#666666"
     borderopacity="1"
     objecttolerance="10"
     gridtolerance="10"
     guidetolerance="10"
     inkscape:pageopacity="0"
     inkscape:pageshadow="2"
     inkscape:window-width="1920"
     inkscape:window-height="1001"
     id="namedview1426"
     showgrid="false"
     inkscape:zoom="1.2625"
     inkscape:cx="319.40651"
     inkscape:cy="318"
     inkscape:window-x="-9"
     inkscape:window-y="-9"
     inkscape:window-maximized="1"
     inkscape:current-layer="svg1424" />
  <g
     transform="matrix(0.01568379,0,0,-0.01568379,-0.06981145,75.235255)"
     id="g1422"
     style="fill:#242423;stroke:none">
    <path
       d="m 2305,4787 c -72,-24 -88,-37 -328,-276 l -237,-236 276,-276 c 273,-273 277,-277 306,-267 16,6 64,8 106,6 221,-13 371,-197 340,-420 l -8,-63 260,-260 260,-260 h 117 c 117,0 119,0 183,-36 78,-43 139,-113 170,-196 32,-84 25,-204 -15,-286 -35,-71 -107,-140 -183,-175 -49,-23 -70,-27 -147,-27 -82,0 -97,3 -156,32 -157,78 -240,254 -199,423 l 13,52 -247,247 -246,246 v -652 c 0,-651 0,-652 21,-663 35,-20 101,-83 126,-124 39,-61 54,-116 54,-196 1,-99 -27,-173 -91,-243 -135,-148 -343,-165 -504,-42 -85,65 -142,199 -133,311 9,119 90,245 189,295 l 38,19 v 658 657 l -45,24 c -136,72 -214,256 -172,408 l 14,51 -271,271 -271,271 -741,-742 C -44,2488 5,2546 5,2400 6,2339 11,2316 32,2274 69,2203 2196,78 2267,40 c 41,-21 61,-25 138,-25 80,0 96,3 141,28 70,39 2182,2152 2215,2217 35,66 34,204 0,274 -19,39 -258,282 -1109,1130 -764,763 -1097,1088 -1129,1104 -55,29 -161,38 -218,19 z"
       id="path1420"
       inkscape:connector-curvature="0" />
  </g>
</svg>
