<?xml version="1.0" encoding="UTF-8" standalone="no"?>
<svg
   xmlns:dc="http://purl.org/dc/elements/1.1/"
   xmlns:cc="http://creativecommons.org/ns#"
   xmlns:rdf="http://www.w3.org/1999/02/22-rdf-syntax-ns#"
   xmlns:svg="http://www.w3.org/2000/svg"
   xmlns="http://www.w3.org/2000/svg"
   xmlns:sodipodi="http://sodipodi.sourceforge.net/DTD/sodipodi-0.dtd"
   xmlns:inkscape="http://www.inkscape.org/namespaces/inkscape"
   version="1.0"
   width="74.999977pt"
   height="74.969353pt"
   viewBox="0 0 74.999977 74.969353"
   preserveAspectRatio="xMidYMid meet"
   id="svg4534"
   sodipodi:docname="github100.svg"
   inkscape:version="0.92.5 (2060ec1f9f, 2020-04-08)">
  <metadata
     id="metadata4540">
    <rdf:RDF>
      <cc:Work
         rdf:about="">
        <dc:format>image/svg+xml</dc:format>
        <dc:type
           rdf:resource="http://purl.org/dc/dcmitype/StillImage" />
        <dc:title></dc:title>
      </cc:Work>
    </rdf:RDF>
  </metadata>
  <defs
     id="defs4538" />
  <sodipodi:namedview
     pagecolor="#ffffff"
     bordercolor="#666666"
     borderopacity="1"
     objecttolerance="10"
     gridtolerance="10"
     guidetolerance="10"
     inkscape:pageopacity="0"
     inkscape:pageshadow="2"
     inkscape:window-width="1920"
     inkscape:window-height="1001"
     id="namedview4536"
     showgrid="false"
     inkscape:zoom="0.61836735"
     inkscape:cx="653.18329"
     inkscape:cy="653.24955"
     inkscape:window-x="-9"
     inkscape:window-y="-9"
     inkscape:window-maximized="1"
     inkscape:current-layer="svg4534" />
  <g
     transform="matrix(0.00765404,0,0,-0.00765404,-0.00861321,74.974161)"
     id="g4532"
     style="fill:#242423;stroke:none">
    <path
       d="M 4560,9789 C 3525,9714 2562,9326 1760,8661 1610,8538 1259,8186 1138,8040 604,7393 258,6668 96,5860 -163,4569 114,3212 857,2133 1134,1730 1485,1355 1875,1046 2315,698 2855,410 3400,235 4840,-228 6425,3 7667,857 c 407,279 799,649 1099,1034 735,946 1100,2126 1024,3314 -70,1094 -491,2109 -1216,2935 -112,128 -386,398 -509,501 -763,642 -1665,1026 -2665,1134 -174,19 -664,27 -840,14 z m 695,-789 c 850,-77 1629,-398 2280,-939 130,-108 353,-327 469,-461 481,-552 810,-1230 940,-1940 54,-297 61,-381 61,-760 0,-379 -7,-463 -61,-760 -81,-438 -243,-881 -472,-1285 -78,-139 -246,-385 -358,-525 -138,-173 -471,-506 -641,-642 -305,-242 -636,-438 -989,-587 -98,-41 -346,-131 -360,-131 -2,0 -4,195 -4,433 0,459 -6,537 -51,683 -49,159 -160,326 -279,420 l -62,48 139,18 c 475,59 917,203 1206,391 309,201 556,514 687,867 18,47 49,153 70,236 101,394 125,872 59,1211 -55,284 -190,569 -377,792 -34,40 -62,79 -62,86 0,6 9,38 20,69 51,150 65,250 65,471 -1,189 -3,222 -27,332 -15,67 -45,177 -68,246 l -41,124 -52,7 c -122,14 -212,3 -377,-50 -240,-75 -498,-202 -764,-374 -51,-33 -100,-60 -109,-60 -9,0 -71,14 -139,30 -149,37 -352,73 -548,97 -204,25 -761,25 -972,0 -192,-23 -404,-60 -552,-97 -65,-17 -125,-30 -133,-30 -8,0 -79,41 -156,90 -78,50 -232,135 -342,190 -286,141 -445,191 -660,205 -147,10 -145,11 -194,-138 -22,-68 -52,-182 -67,-253 -25,-115 -28,-151 -28,-324 0,-210 15,-312 68,-470 l 25,-73 -50,-56 c -118,-131 -261,-376 -323,-549 -30,-85 -62,-205 -83,-317 -21,-109 -29,-499 -14,-663 33,-358 116,-682 237,-923 144,-288 408,-567 687,-727 289,-165 720,-294 1144,-343 l 112,-13 -85,-80 c -136,-127 -212,-257 -259,-441 -34,-133 -45,-306 -45,-732 0,-201 -4,-343 -9,-343 -19,0 -310,104 -411,147 -1338,570 -2276,1790 -2475,3218 -27,197 -35,326 -35,575 0,481 59,854 204,1295 207,627 550,1173 1032,1645 322,315 643,544 1040,743 464,232 978,375 1509,420 96,8 580,6 680,-3 z"
       id="path4530"
       inkscape:connector-curvature="0" />
  </g>
</svg>
