<?xml version="1.0" encoding="UTF-8" standalone="no"?>
<svg
   xmlns:dc="http://purl.org/dc/elements/1.1/"
   xmlns:cc="http://creativecommons.org/ns#"
   xmlns:rdf="http://www.w3.org/1999/02/22-rdf-syntax-ns#"
   xmlns:svg="http://www.w3.org/2000/svg"
   xmlns="http://www.w3.org/2000/svg"
   id="svg6239"
   preserveAspectRatio="xMidYMid meet"
   viewBox="0 0 74.999985 83.015068"
   height="83.015068pt"
   width="74.999985pt"
   version="1.0">
  <metadata
     id="metadata6245">
    <rdf:RDF>
      <cc:Work
         rdf:about="">
        <dc:format>image/svg+xml</dc:format>
        <dc:type
           rdf:resource="http://purl.org/dc/dcmitype/StillImage" />
        <dc:title></dc:title>
      </cc:Work>
    </rdf:RDF>
  </metadata>
  <defs
     id="defs6243" />
  <g
     style="fill:#242423;stroke:none"
     id="g6237"
     transform="matrix(0.01948488,0,0,-0.01948488,-12.372899,91.393564)">
    <path
       id="path6235"
       d="m 2428,4666 c -151,-62 -237,-203 -223,-366 l 6,-65 -467,-267 -468,-267 -44,40 c -180,166 -462,111 -569,-111 -23,-47 -27,-68 -28,-145 0,-78 4,-98 28,-150 46,-99 127,-169 232,-200 l 40,-12 3,-545 2,-545 -45,-18 c -59,-22 -150,-106 -180,-165 -88,-174 -16,-399 155,-484 60,-31 91,-37 170,-37 84,0 163,29 222,80 l 43,38 445,-264 c 245,-145 451,-267 458,-272 10,-6 11,-21 1,-77 -35,-213 131,-404 351,-404 169,0 304,106 346,270 14,54 14,75 5,133 -6,39 -10,71 -9,72 2,2 89,53 193,115 105,62 309,184 455,270 l 265,157 44,-38 c 133,-117 356,-106 482,24 108,111 134,287 61,420 -33,62 -119,140 -177,162 l -45,18 2,545 3,545 40,12 c 105,31 186,101 232,200 24,52 28,71 27,150 0,68 -5,101 -21,135 -105,230 -392,290 -575,121 l -44,-40 -468,267 -467,267 6,65 c 10,119 -44,249 -133,316 -98,76 -243,96 -354,50 z m -145,-618 c -10,-18 -273,-477 -583,-1020 -310,-543 -565,-986 -566,-985 -1,1 -5,250 -9,552 l -7,550 46,24 c 53,27 116,92 144,148 24,46 45,142 40,185 l -3,31 475,273 c 261,150 477,273 478,273 2,1 -5,-14 -15,-31 z m 1027,-247 c 234,-134 434,-249 446,-256 16,-10 19,-21 16,-49 -13,-115 73,-269 184,-327 l 46,-24 -7,-550 c -4,-302 -8,-551 -9,-552 -1,-1 -256,442 -566,985 -310,543 -573,1003 -584,1022 l -21,35 35,-21 c 19,-11 226,-130 460,-263 z m -635,148 c 11,-19 277,-477 591,-1018 l 571,-985 -32,-42 c -18,-24 -41,-63 -50,-88 l -18,-46 H 2560 1383 l -18,46 c -9,25 -32,64 -50,88 l -32,42 571,985 c 314,542 580,1000 592,1019 l 20,35 95,-2 94,-1 z M 3699,1586 c -2,-2 -204,-121 -449,-266 l -445,-263 -30,18 c -69,42 -107,57 -159,64 -98,13 -170,-4 -271,-64 l -30,-18 -385,228 c -212,126 -414,246 -450,267 l -65,38 h 1144 c 629,0 1142,-2 1140,-4 z" />
  </g>
</svg>
