<?xml version="1.0" encoding="UTF-8" standalone="no"?>
<svg
   xmlns:dc="http://purl.org/dc/elements/1.1/"
   xmlns:cc="http://creativecommons.org/ns#"
   xmlns:rdf="http://www.w3.org/1999/02/22-rdf-syntax-ns#"
   xmlns:svg="http://www.w3.org/2000/svg"
   xmlns="http://www.w3.org/2000/svg"
   xmlns:sodipodi="http://sodipodi.sourceforge.net/DTD/sodipodi-0.dtd"
   xmlns:inkscape="http://www.inkscape.org/namespaces/inkscape"
   version="1.0"
   width="84.233589pt"
   height="75.000023pt"
   viewBox="0 0 84.233589 75.000023"
   preserveAspectRatio="xMidYMid meet"
   id="svg835"
   sodipodi:docname="react100.svg"
   inkscape:version="0.92.5 (2060ec1f9f, 2020-04-08)">
  <metadata
     id="metadata841">
    <rdf:RDF>
      <cc:Work
         rdf:about="">
        <dc:format>image/svg+xml</dc:format>
        <dc:type
           rdf:resource="http://purl.org/dc/dcmitype/StillImage" />
        <dc:title></dc:title>
      </cc:Work>
    </rdf:RDF>
  </metadata>
  <defs
     id="defs839" />
  <sodipodi:namedview
     pagecolor="#ffffff"
     bordercolor="#666666"
     borderopacity="1"
     objecttolerance="10"
     gridtolerance="10"
     guidetolerance="10"
     inkscape:pageopacity="0"
     inkscape:pageshadow="2"
     inkscape:window-width="1920"
     inkscape:window-height="1001"
     id="namedview837"
     showgrid="false"
     inkscape:zoom="0.66961326"
     inkscape:cx="496.82022"
     inkscape:cy="440.21309"
     inkscape:window-x="-9"
     inkscape:window-y="-9"
     inkscape:window-maximized="1"
     inkscape:current-layer="svg835" />
  <g
     transform="matrix(0.01130246,0,0,-0.01130246,-30.221064,88.827473)"
     id="g833"
     style="fill:#242423;stroke:none">
    <path
       d="m 4780,7851 c -154,-22 -271,-80 -375,-186 -285,-290 -361,-918 -205,-1708 16,-84 30,-155 30,-159 0,-4 -26,-15 -57,-24 -98,-28 -367,-132 -501,-193 -683,-310 -1051,-726 -992,-1119 27,-176 113,-327 284,-497 162,-161 354,-291 623,-421 139,-68 394,-170 556,-224 78,-25 97,-35 93,-48 -11,-36 -55,-283 -70,-387 -37,-260 -47,-572 -25,-773 52,-484 249,-787 562,-867 394,-100 978,151 1572,675 59,52 113,99 120,104 10,7 42,-15 117,-80 268,-234 524,-412 768,-533 490,-243 874,-242 1115,4 196,200 285,503 285,968 0,263 -25,495 -81,777 -12,58 -22,111 -23,118 -1,8 51,31 139,61 676,232 1150,550 1329,891 125,238 108,469 -51,708 -207,311 -676,605 -1298,813 -71,24 -131,44 -132,44 -1,0 7,42 18,93 62,304 89,551 89,816 0,434 -80,726 -257,943 -75,91 -212,171 -339,198 -91,19 -256,19 -352,-1 -368,-74 -833,-346 -1251,-729 l -72,-66 -85,76 c -567,504 -1151,781 -1534,726 z m 210,-342 c 225,-36 535,-193 839,-423 128,-98 323,-266 319,-276 -2,-5 -51,-62 -109,-127 -144,-159 -297,-345 -415,-502 l -97,-129 -61,-7 c -219,-23 -632,-94 -798,-136 -42,-10 -83,-19 -91,-19 -18,0 -36,70 -71,286 -65,398 -59,779 15,1022 81,260 219,352 469,311 z m 3049,-6 c 29,-9 71,-33 95,-54 84,-74 157,-257 187,-469 20,-136 15,-478 -10,-660 -25,-189 -70,-430 -81,-430 -4,0 -68,14 -141,30 -159,36 -477,91 -677,116 l -143,18 -37,50 c -127,176 -347,443 -507,616 l -87,94 24,21 c 14,11 70,59 124,106 335,289 660,484 929,554 111,30 248,33 324,8 z M 6667,6270 c 58,-69 113,-137 124,-151 l 18,-26 h -409 c -226,0 -410,2 -410,4 0,10 159,202 278,336 l 126,141 84,-90 c 46,-49 131,-145 189,-214 z m 213,-531 c 107,-6 198,-13 203,-16 11,-6 147,-211 239,-358 118,-190 238,-404 346,-619 l 100,-199 -34,-76 c -154,-338 -605,-1098 -661,-1115 -10,-2 -116,-10 -235,-17 -211,-11 -824,-7 -1031,7 l -88,7 -99,147 c -182,272 -358,577 -513,887 l -76,151 112,224 c 158,312 356,650 524,893 l 48,70 85,8 c 267,24 702,26 1080,6 z m -1628,-91 c -10,-18 -58,-96 -104,-173 -47,-77 -132,-225 -188,-329 -76,-138 -105,-184 -112,-173 -28,51 -206,573 -197,581 8,8 234,55 424,90 105,19 192,35 193,35 2,1 -5,-14 -16,-31 z m 2523,-14 c 133,-24 367,-73 373,-79 7,-6 -189,-579 -203,-593 -2,-2 -22,32 -44,77 -56,111 -216,388 -301,521 -38,61 -70,112 -70,114 0,4 33,-2 245,-40 z M 4388,5243 c 62,-188 181,-500 250,-655 l 21,-48 -50,-117 c -70,-164 -167,-427 -230,-623 -29,-91 -55,-168 -59,-173 -16,-19 -417,137 -625,243 -334,170 -556,352 -642,528 -33,66 -38,85 -38,147 0,59 5,81 32,136 127,257 537,528 1098,725 83,29 155,53 161,53 6,1 43,-97 82,-216 z m 4204,186 c 274,-91 590,-238 774,-362 324,-216 468,-430 409,-609 -89,-274 -558,-592 -1189,-804 -55,-19 -101,-32 -103,-31 -1,2 -21,64 -44,138 -50,162 -144,418 -233,630 l -65,157 64,150 c 78,184 180,464 232,634 21,71 43,128 50,128 6,0 54,-14 105,-31 z M 8008,3968 c 96,-260 147,-429 132,-438 -27,-16 -596,-127 -605,-118 -2,2 19,39 46,82 81,126 212,354 289,500 40,75 73,136 75,136 2,0 30,-73 63,-162 z m -3073,11 c 82,-151 205,-360 285,-487 27,-42 48,-78 46,-80 -8,-7 -458,77 -578,109 l -37,9 15,53 c 39,136 181,537 190,537 1,0 37,-64 79,-141 z m 110,-878 c 99,-17 249,-39 334,-50 84,-11 154,-21 155,-23 190,-255 319,-414 497,-613 l 129,-144 -68,-61 c -114,-106 -300,-251 -443,-346 -445,-297 -821,-381 -987,-221 -204,197 -253,757 -126,1411 14,72 27,133 29,137 3,3 71,-9 152,-27 81,-18 229,-47 328,-63 z m 3199,82 c 12,-42 56,-287 71,-398 23,-165 31,-502 16,-635 -33,-290 -116,-476 -241,-544 -43,-23 -70,-30 -133,-34 -294,-17 -706,186 -1162,573 -66,56 -126,109 -134,118 -11,14 -2,28 77,114 167,182 252,284 484,587 l 53,70 145,18 c 204,25 480,73 650,112 177,41 168,40 174,19 z M 6786,2955 c -140,-178 -364,-433 -381,-434 -17,-1 -415,450 -415,470 0,2 186,4 414,4 h 414 z"
       id="path829"
       inkscape:connector-curvature="0" />
    <path
       d="m 6292,5229 c -273,-42 -505,-257 -568,-527 -22,-95 -19,-250 6,-342 84,-301 358,-510 667,-510 112,0 210,23 313,73 69,33 102,58 175,132 74,73 98,106 132,175 53,110 73,194 73,312 0,319 -210,593 -516,672 -78,20 -204,27 -282,15 z"
       id="path831"
       inkscape:connector-curvature="0" />
  </g>
</svg>
