<?xml version="1.0" encoding="UTF-8" standalone="no"?>
<!-- Generator: Adobe Illustrator 17.1.0, SVG Export Plug-In . SVG Version: 6.00 Build 0)  -->

<svg
   xmlns:dc="http://purl.org/dc/elements/1.1/"
   xmlns:cc="http://creativecommons.org/ns#"
   xmlns:rdf="http://www.w3.org/1999/02/22-rdf-syntax-ns#"
   xmlns:svg="http://www.w3.org/2000/svg"
   xmlns="http://www.w3.org/2000/svg"
   xmlns:sodipodi="http://sodipodi.sourceforge.net/DTD/sodipodi-0.dtd"
   xmlns:inkscape="http://www.inkscape.org/namespaces/inkscape"
   version="1.1"
   id="Layer_1"
   x="0px"
   y="0px"
   viewBox="0 0 133.34397 99.999999"
   enable-background="new 0 0 547.8 410.6"
   xml:space="preserve"
   sodipodi:docname="sass100.svg"
   width="133.34396"
   height="100"
   inkscape:version="0.92.5 (2060ec1f9f, 2020-04-08)"><metadata
   id="metadata855"><rdf:RDF><cc:Work
       rdf:about=""><dc:format>image/svg+xml</dc:format><dc:type
         rdf:resource="http://purl.org/dc/dcmitype/StillImage" /><dc:title></dc:title></cc:Work></rdf:RDF></metadata><defs
   id="defs853" /><sodipodi:namedview
   pagecolor="#ffffff"
   bordercolor="#666666"
   borderopacity="1"
   objecttolerance="10"
   gridtolerance="10"
   guidetolerance="10"
   inkscape:pageopacity="0"
   inkscape:pageshadow="2"
   inkscape:window-width="1920"
   inkscape:window-height="1001"
   id="namedview851"
   showgrid="false"
   inkscape:zoom="1.9678519"
   inkscape:cx="273.92621"
   inkscape:cy="205.25362"
   inkscape:window-x="-9"
   inkscape:window-y="-9"
   inkscape:window-maximized="1"
   inkscape:current-layer="Layer_1" />
<path
   d="m 114.81959,57.486049 c -4.65196,0.0244 -8.69502,1.14473 -12.08047,2.80092 -1.24215,-2.45993 -2.48429,-4.65196 -2.7035,-6.25944 -0.243556,-1.87539 -0.535825,-3.02012 -0.243556,-5.26085 0.292276,-2.24073 1.607486,-5.43134 1.583126,-5.6749 -0.0243,-0.24356 -0.29227,-1.38828 -2.971406,-1.41263 -2.679137,-0.0244 -4.992937,0.51147 -5.260851,1.21778 -0.267914,0.70632 -0.779385,2.3138 -1.120366,3.97 -0.462761,2.43558 -5.358275,11.1306 -8.159191,15.68513 -0.901164,-1.77797 -1.680549,-3.33674 -1.85104,-4.57889 -0.243558,-1.8754 -0.535827,-3.02012 -0.243558,-5.26085 0.29227,-2.24073 1.607482,-5.43134 1.583127,-5.6749 -0.02436,-0.24356 -0.29227,-1.38828 -2.971407,-1.41264 -2.679137,-0.0244 -4.992937,0.51147 -5.260851,1.21779 -0.267914,0.70632 -0.560183,2.36251 -1.120367,3.97 -0.560183,1.60748 -7.063179,16.12353 -8.768085,19.87432 -0.876808,1.92411 -1.631838,3.45853 -2.167665,4.50582 0,0 0,0 0,0 0,0 -0.02436,0.0731 -0.09742,0.19485 -0.46276,0.90117 -0.730674,1.38828 -0.730674,1.38828 0,0 0,0 0,0.0244 -0.365337,0.6576 -0.75503,1.2665 -0.949876,1.2665 -0.146135,0 -0.414048,-1.75362 0.04871,-4.14049 0.974231,-5.04165 3.288032,-12.88421 3.263676,-13.15212 0,-0.14614 0.438404,-1.51006 -1.510059,-2.21638 -1.899752,-0.70632 -2.581714,0.46276 -2.752205,0.46276 -0.17049,0 -0.292269,0.41405 -0.292269,0.41405 0,0 2.118954,-8.8168 -4.043062,-8.8168 -3.848215,0 -9.157778,4.21355 -11.788203,8.01306 -1.656194,0.90116 -5.187784,2.82527 -8.962931,4.89551 -1.436992,0.80374 -2.922695,1.60748 -4.310976,2.36251 -0.09742,-0.0974 -0.194846,-0.2192 -0.292269,-0.31662 C 23.1931,57.607869 9.4077216,51.981689 9.9922606,41.289489 10.211462,37.392569 11.551031,27.163129 36.467006,14.741679 56.974583,4.6340287 73.292964,7.4349387 76.118235,13.645669 c 4.043062,8.86551 -8.743729,25.33002 -29.933268,27.71689 -8.086123,0.90116 -12.324031,-2.21638 -13.395685,-3.38546 -1.120367,-1.21778 -1.290857,-1.29085 -1.704906,-1.04729 -0.681962,0.36533 -0.243558,1.46134 0,2.09459 0.633251,1.6562 3.23932,4.57889 7.647719,6.01588 3.896926,1.26651 13.37133,1.97282 24.842908,-2.45993 C 76.410505,37.611769 86.445091,23.802029 83.49804,12.233029 80.55099,0.49353872 61.066356,-3.3790313 42.629021,3.1726787 31.668915,7.0695987 19.783289,13.207259 11.234406,21.195959 1.0780408,30.694719 -0.52944151,38.951339 0.12816487,42.409859 2.4906767,54.685179 19.417952,62.673879 26.188862,68.592339 c -0.340981,0.19484 -0.657606,0.36533 -0.92552,0.51147 -3.385455,1.68055 -16.2940246,8.4271 -19.5089892,15.56335 -3.6533688,8.08612 0.584539,13.8828 3.3854551,14.66218 8.6950171,2.411231 17.6335931,-1.9241 22.4316841,-9.08471 4.798091,-7.1606 4.213552,-16.46451 1.997175,-20.72677 -0.02436,-0.0487 -0.04871,-0.0974 -0.09742,-0.14614 0.876808,-0.51147 1.777973,-1.0473 2.654781,-1.55877 1.729261,-1.02294 3.434167,-1.97282 4.895514,-2.7522 -0.828097,2.26508 -1.436991,4.96858 -1.729261,8.8655 -0.365337,4.57889 1.510059,10.52171 3.969994,12.85986 1.096011,1.02294 2.386868,1.0473 3.214965,1.0473 2.873983,0 4.16484,-2.38687 5.601832,-5.21214 1.753617,-3.45852 3.336743,-7.47723 3.336743,-7.47723 0,0 -1.972819,10.86269 3.385455,10.86269 1.948464,0 3.921283,-2.53301 4.798091,-3.82386 0,0.0244 0,0.0244 0,0.0244 0,0 0.04871,-0.0731 0.146135,-0.24356 0.194846,-0.31662 0.316625,-0.51147 0.316625,-0.51147 0,0 0,-0.0243 0,-0.0487 0.779386,-1.36392 2.533003,-4.45711 5.139072,-9.59618 3.3611,-6.62478 6.60042,-14.90575 6.60042,-14.90575 0,0 0.29227,2.02154 1.290857,5.38263 0.584539,1.97282 1.802329,4.14049 2.77656,6.23509 -0.779385,1.09601 -1.266501,1.7049 -1.266501,1.7049 0,0 0,0 0.02436,0.0244 -0.633251,0.8281 -1.315213,1.72926 -2.070242,2.60607 -2.654782,3.16625 -5.821035,6.79526 -6.259439,7.84256 -0.511472,1.24215 -0.389693,2.14331 0.584539,2.87399 0.706318,0.53582 1.972819,0.60889 3.263676,0.53582 2.386868,-0.17049 4.067417,-0.75502 4.895514,-1.12036 1.290857,-0.46276 2.800916,-1.16908 4.213552,-2.21638 2.60607,-1.92411 4.189197,-4.67631 4.043062,-8.30532 -0.07307,-1.99718 -0.730674,-3.99435 -1.534415,-5.86975 0.243558,-0.34098 0.46276,-0.68196 0.706318,-1.02294 4.116129,-6.01588 7.306738,-12.6163 7.306738,-12.6163 0,0 0.292269,2.02153 1.290856,5.38263 0.487116,1.7049 1.485704,3.55594 2.362512,5.35827 -3.872571,3.1419 -6.259438,6.79527 -7.111891,9.18213 -1.534415,4.43276 -0.340981,6.42993 1.924108,6.89269 1.022943,0.21921 2.48429,-0.26791 3.555945,-0.73067 1.363925,-0.4384 2.971407,-1.19343 4.505828,-2.3138 2.60607,-1.92411 5.11471,-4.60325 4.96858,-8.23226 -0.0731,-1.65619 -0.51147,-3.28803 -1.12037,-4.87116 3.28803,-1.36392 7.52594,-2.11895 12.93293,-1.4857 11.59336,1.36392 13.8828,8.59759 13.4444,11.64207 -0.43841,3.04447 -2.87399,4.70067 -3.67773,5.21214 -0.80374,0.51147 -1.07165,0.68196 -0.99859,1.0473 0.0974,0.53582 0.48712,0.51147 1.16908,0.41405 0.94988,-0.17049 6.08895,-2.45994 6.30815,-8.06177 0.36534,-7.1606 -6.45428,-14.97881 -18.5104,-14.90575 z m -89.43447,30.15247 c -3.848215,4.1892 -9.20649,5.77233 -11.52029,4.43276 -2.484291,-1.43699 -1.510059,-7.62336 3.214965,-12.05612 2.873983,-2.70349 6.576064,-5.21214 9.035999,-6.74655 0.560183,-0.34098 1.38828,-0.8281 2.386867,-1.43699 0.170491,-0.0974 0.267914,-0.14614 0.267914,-0.14614 v 0 c 0.194846,-0.12178 0.389693,-0.24356 0.584539,-0.36534 1.729261,6.33251 0.07307,11.90999 -3.969994,16.31838 z m 28.009161,-19.04622 c -1.339569,3.26367 -4.140485,11.61771 -5.845391,11.15495 -1.461347,-0.38969 -2.362511,-6.7222 -0.292269,-12.98164 1.047299,-3.1419 3.263676,-6.89269 4.554533,-8.35404 2.094598,-2.33815 4.408398,-3.11754 4.968582,-2.16766 0.706318,1.24214 -2.557359,10.3025 -3.385455,12.34839 z m 23.113646,11.05752 c -0.560183,0.29227 -1.096011,0.48712 -1.339569,0.34099 -0.17049,-0.0974 0.243558,-0.48712 0.243558,-0.48712 0,0 2.89834,-3.11754 4.043062,-4.53018 0.657606,-0.82809 1.436992,-1.80233 2.265089,-2.89834 0,0.0974 0,0.21921 0,0.31663 0,3.72643 -3.604658,6.23508 -5.21214,7.25802 z m 17.82844,-4.06741 c -0.414049,-0.29227 -0.340981,-1.2665 1.047299,-4.31098 0.535827,-1.19343 1.802328,-3.19061 3.969994,-5.11471 0.243558,0.77938 0.414048,1.53441 0.389693,2.24073 -0.02436,4.70067 -3.385456,6.45428 -5.406986,7.18496 z"
   id="path836"
   inkscape:connector-curvature="0"
   style="fill:#242423;stroke-width:0.24355792" />
<g
   id="g838"
   transform="translate(0.02621828,-310.55362)">
</g>
<g
   id="g840"
   transform="translate(0.02621828,-310.55362)">
</g>
<g
   id="g842"
   transform="translate(0.02621828,-310.55362)">
</g>
<g
   id="g844"
   transform="translate(0.02621828,-310.55362)">
</g>
<g
   id="g846"
   transform="translate(0.02621828,-310.55362)">
</g>
<g
   id="g848"
   transform="translate(0.02621828,-310.55362)">
</g>
</svg>