<?xml version="1.0" encoding="UTF-8" standalone="no"?>
<svg
   xmlns:dc="http://purl.org/dc/elements/1.1/"
   xmlns:cc="http://creativecommons.org/ns#"
   xmlns:rdf="http://www.w3.org/1999/02/22-rdf-syntax-ns#"
   xmlns:svg="http://www.w3.org/2000/svg"
   xmlns="http://www.w3.org/2000/svg"
   xmlns:sodipodi="http://sodipodi.sourceforge.net/DTD/sodipodi-0.dtd"
   xmlns:inkscape="http://www.inkscape.org/namespaces/inkscape"
   version="1.0"
   width="84.190933pt"
   height="74.999985pt"
   viewBox="0 0 84.190933 74.999985"
   preserveAspectRatio="xMidYMid meet"
   id="svg5125"
   sodipodi:docname="www100.svg"
   inkscape:version="0.92.5 (2060ec1f9f, 2020-04-08)">
  <metadata
     id="metadata5131">
    <rdf:RDF>
      <cc:Work
         rdf:about="">
        <dc:format>image/svg+xml</dc:format>
        <dc:type
           rdf:resource="http://purl.org/dc/dcmitype/StillImage" />
        <dc:title></dc:title>
      </cc:Work>
    </rdf:RDF>
  </metadata>
  <defs
     id="defs5129" />
  <sodipodi:namedview
     pagecolor="#ffffff"
     bordercolor="#666666"
     borderopacity="1"
     objecttolerance="10"
     gridtolerance="10"
     guidetolerance="10"
     inkscape:pageopacity="0"
     inkscape:pageshadow="2"
     inkscape:window-width="1920"
     inkscape:window-height="1001"
     id="namedview5127"
     showgrid="false"
     inkscape:zoom="1.1835938"
     inkscape:cx="340.98914"
     inkscape:cy="303.75476"
     inkscape:window-x="-9"
     inkscape:window-y="-9"
     inkscape:window-maximized="1"
     inkscape:current-layer="svg5125" />
  <g
     transform="matrix(0.01645748,0,0,-0.01645748,-0.04248417,79.638348)"
     id="g5123"
     style="fill:#242423;stroke:none">
    <path
       d="M 2277,4825 C 1673,4742 1179,4469 788,4000 601,3776 447,3481 365,3188 l -28,-98 42,-157 c 22,-87 44,-173 48,-192 5,-28 8,-31 13,-15 4,10 10,44 14,74 27,218 106,491 197,674 60,122 120,226 130,226 4,0 76,-16 160,-35 84,-20 227,-49 317,-65 90,-16 165,-30 167,-32 2,-2 -5,-75 -15,-163 -10,-88 -20,-188 -22,-222 l -4,-63 h 82 81 l 7,73 c 4,39 14,136 23,214 15,136 17,142 37,138 95,-20 662,-65 820,-65 h 41 l -1,-180 -2,-180 h 84 84 v 178 179 l 204,7 c 190,6 442,25 599,44 37,5 67,6 67,3 0,-3 6,-58 14,-121 8,-63 17,-154 21,-202 l 7,-88 h 84 85 l -6,48 c -3,26 -10,100 -16,166 -6,65 -14,141 -19,170 -4,28 -7,52 -6,53 1,2 86,19 189,38 102,20 249,51 327,70 78,19 143,35 145,35 9,0 56,-82 110,-188 115,-230 165,-389 210,-667 12,-77 25,-133 28,-125 3,8 27,91 53,183 l 47,169 -23,86 c -54,207 -181,487 -302,667 -223,331 -517,592 -863,768 -333,168 -673,248 -1049,246 -94,-1 -215,-7 -269,-14 z m 198,-665 v -510 h -38 c -125,0 -804,54 -815,65 -13,12 97,474 160,672 l 51,162 96,30 c 155,49 368,88 486,90 l 60,1 z m 365,496 c 113,-16 282,-54 370,-84 l 55,-19 29,-84 c 73,-216 202,-747 185,-763 -16,-15 -550,-56 -736,-56 h -103 v 510 510 h 48 c 26,0 94,-7 152,-14 z M 1602,4372 c -35,-113 -99,-380 -123,-509 -13,-71 -28,-123 -34,-123 -13,0 -331,59 -467,86 -49,10 -88,23 -88,29 0,7 44,61 99,121 146,162 307,294 496,404 50,29 99,59 110,65 28,18 30,4 7,-73 z m 2001,26 c 159,-93 272,-177 393,-291 99,-94 234,-242 234,-256 0,-15 -564,-130 -577,-118 -3,4 -23,89 -43,189 -36,170 -79,345 -115,463 -17,56 -19,75 -7,75 4,0 56,-28 115,-62 z"
       id="path5113"
       inkscape:connector-curvature="0" />
    <path
       d="m 3,2968 c 2,-7 17,-53 31,-103 15,-49 40,-133 56,-185 65,-213 135,-446 190,-630 l 58,-195 90,-3 c 79,-2 92,0 100,15 23,44 215,632 246,752 19,73 37,135 39,137 2,2 11,-31 21,-74 23,-100 85,-309 178,-597 l 74,-230 97,-3 c 74,-2 97,0 97,10 0,13 19,75 115,368 149,458 235,728 235,739 0,7 -32,11 -100,11 h -100 l -6,-27 c -3,-16 -24,-91 -46,-168 -88,-307 -157,-564 -173,-648 -10,-48 -20,-86 -22,-84 -2,3 -19,62 -38,133 -19,71 -73,255 -121,409 -47,154 -93,304 -101,333 l -16,52 h -87 -87 l -42,-132 c -23,-73 -69,-214 -100,-313 -32,-99 -78,-250 -102,-335 -37,-132 -45,-150 -51,-125 -4,17 -21,89 -38,160 -17,72 -62,252 -101,400 -39,149 -75,287 -80,308 l -10,37 H 104 c -81,0 -105,-3 -101,-12 z"
       id="path5115"
       inkscape:connector-curvature="0" />
    <path
       d="m 1744,2963 c 4,-10 70,-227 148,-483 77,-256 151,-502 165,-547 l 25,-83 h 93 93 l 92,273 c 116,344 136,408 167,537 l 26,105 33,-125 c 32,-123 66,-237 182,-600 l 58,-185 96,-3 95,-3 36,118 c 20,65 84,267 142,448 59,182 124,383 145,448 l 38,117 h -102 -101 l -87,-307 c -89,-317 -128,-465 -148,-566 -7,-32 -14,-57 -16,-55 -2,3 -13,42 -25,89 -20,84 -46,171 -120,412 -82,267 -121,393 -125,410 -5,14 -18,17 -92,17 h -88 l -37,-117 c -115,-358 -199,-630 -218,-709 -12,-49 -25,-93 -29,-97 -4,-4 -15,30 -24,77 -9,47 -61,255 -115,463 l -98,378 -108,3 c -99,2 -107,1 -101,-15 z"
       id="path5117"
       inkscape:connector-curvature="0" />
    <path
       d="m 3637,2473 c 84,-279 161,-534 170,-565 l 16,-58 h 92 92 l 16,43 c 51,134 228,687 248,772 l 23,100 14,-50 c 35,-131 95,-339 121,-420 16,-49 55,-170 86,-267 l 56,-178 h 93 92 l 36,113 c 20,61 82,254 138,427 105,326 180,556 188,578 3,9 -21,12 -102,12 -78,0 -106,-3 -106,-13 0,-6 -38,-147 -85,-312 -47,-165 -97,-349 -111,-410 -15,-60 -32,-130 -38,-155 l -12,-45 -18,75 c -24,97 -74,272 -141,485 -29,94 -67,216 -84,273 l -32,102 h -87 -87 l -53,-168 c -93,-291 -100,-313 -156,-500 -31,-100 -59,-201 -62,-222 -4,-22 -9,-40 -13,-40 -3,0 -16,48 -29,108 -12,59 -64,267 -115,462 l -93,355 -105,3 -106,3 z"
       id="path5119"
       inkscape:connector-curvature="0" />
    <path
       d="m 1496,2019 -58,-183 18,-108 c 10,-59 15,-110 12,-113 -3,-3 -54,-14 -114,-25 -227,-42 -274,-52 -437,-91 -92,-23 -170,-40 -171,-38 -2,2 -29,52 -61,112 l -57,107 h -88 -89 l 16,-37 c 192,-460 589,-887 1033,-1108 343,-172 613,-241 980,-252 237,-7 486,18 655,66 210,60 345,113 503,196 409,217 737,552 949,971 90,177 91,164 -14,164 h -88 l -55,-106 c -29,-58 -60,-108 -66,-111 -7,-3 -68,9 -136,26 -139,34 -393,84 -515,101 -96,14 -92,5 -67,140 l 16,87 -37,124 c -20,68 -47,155 -59,193 l -22,70 -18,-145 c -19,-154 -62,-418 -69,-426 -3,-2 -79,3 -168,11 -90,9 -263,21 -384,27 -121,6 -230,13 -242,15 -22,4 -23,9 -23,106 0,81 -5,119 -26,187 -49,161 -63,196 -68,181 -3,-8 -19,-67 -36,-131 -25,-94 -31,-138 -31,-227 l -1,-111 -62,-5 c -33,-3 -142,-8 -241,-11 -99,-3 -247,-12 -330,-20 -217,-21 -202,-24 -214,33 -8,40 -38,238 -68,456 l -8,58 z M 2473,981 c -1,-293 -3,-535 -5,-536 -7,-7 -211,17 -308,35 -190,36 -170,21 -227,173 -57,148 -126,352 -172,502 -35,116 -83,306 -79,310 17,17 541,53 738,51 l 54,-1 z m 482,519 c 181,-10 454,-36 462,-44 14,-14 -136,-489 -243,-768 -60,-157 -71,-177 -93,-182 -126,-27 -227,-45 -286,-50 -38,-4 -89,-9 -112,-12 l -43,-5 v 538 538 l 67,-3 c 38,-1 149,-7 248,-12 z m -1436,-87 c 6,-21 17,-65 24,-98 39,-162 108,-383 184,-589 24,-65 42,-122 41,-127 -5,-13 -270,125 -376,195 -53,36 -133,94 -177,129 -143,115 -383,381 -353,392 53,18 388,89 578,123 30,5 58,10 62,11 4,0 12,-16 17,-36 z m 2241,-3 c 181,-30 487,-94 497,-104 7,-7 -47,-74 -151,-189 -159,-176 -390,-346 -630,-463 -75,-37 -139,-64 -142,-61 -3,3 17,67 45,144 61,170 143,429 171,543 42,168 39,161 63,155 12,-2 78,-14 147,-25 z"
       id="path5121"
       inkscape:connector-curvature="0" />
  </g>
</svg>
