<?xml version="1.0" standalone="no"?>
<!DOCTYPE svg PUBLIC "-//W3C//DTD SVG 20010904//EN"
 "http://www.w3.org/TR/2001/REC-SVG-20010904/DTD/svg10.dtd">
<svg version="1.0" xmlns="http://www.w3.org/2000/svg"
 width="512.000000pt" height="512.000000pt" viewBox="0 0 512.000000 512.000000"
 preserveAspectRatio="xMidYMid meet">

<g transform="translate(0.000000,512.000000) scale(0.100000,-0.100000)"
fill="#242423" stroke="none">
<path d="M2331 5109 c-206 -18 -457 -74 -647 -144 -128 -47 -375 -168 -488
-240 -505 -319 -880 -799 -1066 -1365 -91 -276 -125 -491 -125 -800 0 -309 34
-524 125 -800 127 -386 324 -706 613 -999 408 -412 903 -657 1502 -743 118
-17 512 -17 630 0 599 86 1095 331 1502 743 403 408 640 892 725 1484 8 54 13
183 13 320 -1 244 -12 353 -60 565 -146 651 -559 1233 -1131 1595 -113 72
-360 193 -488 240 -339 124 -739 176 -1105 144z m531 -225 c404 -48 826 -227
1163 -492 90 -71 296 -277 367 -367 205 -260 371 -598 447 -910 86 -355 85
-768 -5 -1126 -58 -235 -187 -525 -321 -725 -384 -574 -979 -941 -1673 -1035
-52 -7 -178 -13 -280 -13 -278 0 -486 34 -750 124 -356 120 -633 293 -905 565
-207 207 -330 378 -456 640 -112 230 -182 462 -214 710 -21 157 -21 453 0 610
53 402 207 777 459 1115 91 122 324 355 446 446 509 380 1087 533 1722 458z"/>
<path d="M1580 3623 c-63 -20 -96 -70 -85 -126 6 -25 105 -130 458 -484 l451
-453 -451 -452 c-353 -355 -452 -460 -458 -485 -15 -71 57 -143 128 -128 25 6
130 105 485 458 l452 451 453 -451 c354 -353 459 -452 484 -458 71 -15 143 57
128 128 -6 25 -105 130 -458 485 l-451 452 451 453 c353 354 452 459 458 484
12 58 -32 120 -90 125 -62 5 -66 1 -522 -454 l-453 -452 -453 452 c-249 248
-460 452 -469 452 -9 0 -22 2 -30 4 -7 3 -20 2 -28 -1z"/>
</g>
</svg>
