<?xml version="1.0" encoding="UTF-8" standalone="no"?>
<svg
   xmlns:dc="http://purl.org/dc/elements/1.1/"
   xmlns:cc="http://creativecommons.org/ns#"
   xmlns:rdf="http://www.w3.org/1999/02/22-rdf-syntax-ns#"
   xmlns:svg="http://www.w3.org/2000/svg"
   xmlns="http://www.w3.org/2000/svg"
   xmlns:sodipodi="http://sodipodi.sourceforge.net/DTD/sodipodi-0.dtd"
   xmlns:inkscape="http://www.inkscape.org/namespaces/inkscape"
   version="1.0"
   width="459.5pt"
   height="449.0062pt"
   viewBox="0 0 459.5 449.0062"
   preserveAspectRatio="xMidYMid meet"
   id="svg871"
   sodipodi:docname="logo.svg"
   inkscape:version="0.92.5 (2060ec1f9f, 2020-04-08)">
  <metadata
     id="metadata877">
    <rdf:RDF>
      <cc:Work
         rdf:about="">
        <dc:format>image/svg+xml</dc:format>
        <dc:type
           rdf:resource="http://purl.org/dc/dcmitype/StillImage" />
        <dc:title></dc:title>
      </cc:Work>
    </rdf:RDF>
  </metadata>
  <defs
     id="defs875" />
  <sodipodi:namedview
     pagecolor="#ffffff"
     bordercolor="#666666"
     borderopacity="1"
     objecttolerance="10"
     gridtolerance="10"
     guidetolerance="10"
     inkscape:pageopacity="0"
     inkscape:pageshadow="2"
     inkscape:window-width="1920"
     inkscape:window-height="1001"
     id="namedview873"
     showgrid="false"
     inkscape:zoom="0.54010695"
     inkscape:cx="308"
     inkscape:cy="72.004326"
     inkscape:window-x="-9"
     inkscape:window-y="-9"
     inkscape:window-maximized="1"
     inkscape:current-layer="svg871" />
  <g
     transform="matrix(0.1,0,0,-0.1,-165.5,956.00295)"
     id="g869"
     style="fill:#242423;stroke:none">
    <path
       d="m 1680,9553 -25,-4 V 7315 5082 l 35,-6 c 45,-7 99,-7 128,0 l 22,6 v 2020 c 0,1415 3,2025 11,2039 8,16 13,18 25,8 8,-6 14,-17 14,-23 0,-7 7,-21 15,-31 17,-22 32,-49 126,-232 36,-70 79,-150 96,-178 16,-27 35,-66 43,-85 7,-19 17,-40 22,-46 14,-19 86,-153 144,-269 30,-60 66,-128 80,-150 14,-22 38,-69 55,-105 17,-36 35,-72 40,-80 5,-8 12,-22 16,-30 3,-8 25,-46 48,-85 38,-64 115,-219 115,-232 0,-3 15,-26 33,-52 18,-25 57,-98 87,-161 29,-63 63,-128 75,-145 12,-16 48,-84 80,-150 32,-66 64,-127 70,-135 16,-19 135,-251 135,-263 0,-5 11,-23 24,-40 13,-18 54,-90 90,-162 37,-71 84,-157 104,-190 l 39,-60 58,-3 c 76,-4 105,3 105,27 0,18 -72,162 -95,191 -6,8 -40,74 -75,145 -35,72 -71,142 -81,156 -10,14 -41,71 -68,126 -27,54 -56,105 -65,112 -9,8 -16,19 -16,25 0,12 -115,243 -130,261 -13,16 -100,191 -100,202 0,5 -20,39 -45,76 -25,37 -45,70 -45,72 0,12 -122,255 -131,260 -11,7 -99,184 -99,199 0,6 -15,34 -34,61 -19,28 -60,102 -91,165 -31,63 -67,129 -79,145 -23,32 -86,159 -86,174 0,5 -7,14 -15,21 -8,7 -15,20 -15,29 0,9 -14,36 -31,61 -16,25 -57,101 -91,170 -33,69 -71,139 -83,155 -22,29 -85,159 -85,174 0,5 -7,14 -15,21 -8,7 -15,20 -15,28 0,9 -17,41 -38,72 -22,30 -50,82 -63,115 -13,33 -28,63 -34,67 -10,8 -139,8 -185,1 z"
       id="path847"
       inkscape:connector-curvature="0" />
    <path style="fill:#bb0a21;stroke:none"
       d="m 2137,9553 c -10,-3 -17,-8 -15,-11 2,-4 16,-34 31,-67 15,-33 32,-67 37,-75 5,-8 22,-40 37,-70 14,-30 36,-68 48,-85 12,-16 30,-50 40,-75 26,-61 104,-211 120,-230 7,-8 32,-55 55,-105 24,-49 60,-118 81,-153 21,-34 50,-91 65,-125 15,-34 33,-69 40,-77 6,-8 15,-26 19,-39 4,-14 22,-45 39,-70 18,-25 42,-68 55,-96 49,-107 67,-142 102,-200 20,-33 49,-89 65,-125 15,-36 34,-72 41,-81 7,-8 13,-20 13,-26 0,-6 15,-33 33,-60 32,-50 37,-60 98,-188 18,-38 48,-93 66,-120 18,-28 44,-78 59,-110 15,-33 51,-101 79,-151 48,-82 115,-218 115,-231 0,-2 15,-28 34,-56 18,-29 64,-113 100,-187 37,-74 73,-142 80,-150 7,-8 34,-60 60,-115 72,-152 78,-162 113,-200 33,-36 33,-36 105,-33 66,3 73,5 76,25 2,12 -9,43 -23,70 -67,124 -56,104 -125,238 -29,55 -57,107 -65,115 -7,8 -16,25 -19,37 -4,12 -18,41 -31,65 -13,24 -38,73 -56,110 -17,37 -40,75 -50,84 -11,9 -19,22 -19,28 0,15 -128,267 -145,286 -7,8 -17,27 -20,43 -4,15 -11,29 -15,32 -5,3 -32,51 -59,108 -28,56 -64,125 -80,152 -17,28 -48,86 -71,130 -23,44 -77,148 -120,230 -44,83 -102,195 -131,250 -28,55 -66,127 -85,160 -18,33 -63,121 -100,195 -36,74 -74,144 -85,155 -10,11 -28,43 -39,70 -29,66 -55,119 -90,180 -16,28 -52,97 -81,155 -28,58 -57,112 -64,120 -11,13 -82,148 -124,237 -10,21 -24,33 -44,37 -33,7 -123,6 -150,-1 z"
       id="path849"
       inkscape:connector-curvature="0" />
    <path
       d="m 2583,9553 c -27,-5 -28,-11 -9,-32 7,-9 39,-72 71,-141 32,-69 66,-134 76,-145 19,-22 129,-243 129,-261 0,-6 9,-19 20,-29 16,-15 140,-253 140,-270 0,-4 11,-21 24,-38 14,-18 55,-94 91,-169 36,-76 70,-140 75,-143 5,-3 34,-58 65,-123 31,-64 66,-130 79,-147 12,-16 48,-86 80,-155 32,-69 69,-139 82,-157 13,-17 53,-92 88,-166 35,-74 69,-137 74,-141 11,-7 112,-210 112,-225 0,-5 16,-33 36,-62 19,-29 64,-113 99,-185 36,-73 69,-135 74,-138 5,-4 21,-32 36,-64 14,-31 31,-65 36,-76 6,-10 20,-35 31,-55 12,-20 54,-100 94,-178 40,-78 85,-158 101,-178 l 28,-35 90,2 89,3 48,80 c 26,44 77,141 114,215 38,74 73,142 80,150 6,8 38,67 69,130 32,63 70,133 84,155 15,22 38,65 51,95 13,30 32,66 41,80 9,14 20,36 24,50 4,14 23,46 41,73 19,26 34,51 34,56 0,4 18,44 40,87 22,43 40,83 40,88 0,5 18,33 40,62 22,29 40,57 40,62 0,6 18,46 40,91 22,44 40,85 40,89 0,5 11,21 24,37 25,29 30,39 120,226 30,63 64,124 76,134 11,10 20,23 20,30 0,13 85,181 122,241 13,21 50,91 82,154 68,137 91,179 105,193 6,6 11,17 11,23 0,7 30,68 66,136 71,133 112,187 126,166 4,-7 8,-924 8,-2038 0,-1923 1,-2025 17,-2032 23,-8 116,-10 137,-2 15,6 16,212 16,2239 0,2027 -1,2233 -16,2239 -9,3 -51,6 -94,6 -88,0 -101,-7 -121,-67 -6,-21 -29,-64 -50,-95 -22,-31 -39,-59 -39,-63 0,-13 -102,-214 -130,-255 -16,-25 -30,-50 -30,-57 0,-7 -15,-38 -34,-70 -18,-32 -37,-69 -41,-83 -4,-14 -25,-51 -46,-82 -22,-31 -39,-61 -39,-66 0,-12 -73,-153 -97,-189 -11,-16 -50,-89 -87,-163 -37,-74 -83,-160 -101,-190 -19,-30 -34,-61 -35,-69 0,-8 -6,-22 -13,-30 -7,-9 -24,-41 -37,-71 -14,-30 -34,-68 -46,-85 -12,-16 -51,-91 -88,-165 -37,-74 -78,-153 -91,-175 -13,-22 -49,-89 -79,-150 -31,-60 -71,-139 -90,-175 -19,-36 -37,-72 -40,-80 -4,-8 -20,-35 -36,-60 -16,-25 -34,-56 -40,-70 -5,-14 -14,-32 -18,-40 -18,-32 -60,-116 -66,-130 -4,-8 -17,-33 -30,-55 -22,-36 -114,-218 -130,-255 -28,-67 -52,-95 -84,-98 -31,-3 -33,-1 -63,65 -40,90 -58,124 -79,148 -9,11 -45,81 -79,155 -35,74 -71,144 -80,155 -10,11 -40,65 -68,120 -28,55 -63,120 -77,145 -14,25 -29,52 -32,60 -15,36 -97,196 -106,208 -6,6 -41,73 -78,147 -37,74 -73,141 -79,149 -15,18 -141,272 -141,284 0,5 -7,15 -15,22 -8,6 -48,78 -88,158 -40,81 -85,165 -99,187 -13,22 -37,67 -52,100 -16,33 -39,74 -52,92 -13,17 -24,34 -24,38 0,6 -43,97 -60,125 -4,8 -20,40 -35,70 -15,30 -33,62 -39,70 -7,8 -41,74 -76,145 -35,72 -74,144 -85,160 -12,17 -32,55 -45,85 -13,30 -30,62 -37,71 -7,8 -13,22 -13,30 0,9 -7,24 -15,35 -8,10 -15,26 -15,35 0,25 -107,38 -187,22 z"
       id="path851"
       inkscape:connector-curvature="0" />
    <path
       d="m 5172,9552 c -16,-5 -30,-24 -45,-62 -13,-30 -40,-86 -61,-125 -21,-38 -45,-83 -54,-100 -9,-16 -22,-36 -29,-43 -7,-7 -13,-19 -13,-26 0,-7 -28,-64 -61,-127 -34,-62 -81,-152 -106,-198 -24,-47 -49,-92 -57,-100 -7,-9 -32,-56 -55,-106 -23,-49 -47,-97 -52,-105 -5,-8 -15,-29 -23,-46 -8,-17 -18,-34 -24,-38 -11,-6 -132,-249 -132,-264 0,-5 -7,-16 -16,-23 -9,-8 -41,-63 -70,-123 -30,-60 -58,-114 -64,-120 -5,-5 -10,-18 -10,-27 0,-10 -11,-30 -23,-46 -13,-15 -54,-89 -91,-163 -37,-74 -74,-142 -81,-150 -19,-21 -55,-108 -55,-132 0,-29 46,-121 74,-147 l 23,-22 52,105 c 28,58 55,107 60,110 5,4 40,68 77,144 37,75 74,145 83,155 8,10 47,82 86,160 113,224 226,441 239,457 7,8 36,62 65,120 29,58 66,124 82,148 16,24 29,47 29,51 0,15 109,223 135,256 14,19 25,38 25,44 0,6 18,46 40,88 22,43 40,83 40,89 0,6 18,34 40,62 22,27 40,55 40,62 0,19 94,204 110,217 8,6 11,15 7,20 -11,10 -154,14 -185,5 z"
       id="path853"
       inkscape:connector-curvature="0" />
    <path style="fill:#bb0a21;stroke:none"
       d="m 5620,9551 c -18,-5 -30,-21 -46,-63 -12,-30 -35,-76 -52,-100 -17,-25 -34,-57 -38,-72 -3,-14 -10,-29 -15,-32 -5,-2 -31,-51 -59,-107 -66,-133 -125,-244 -137,-259 -6,-7 -16,-30 -22,-51 -7,-20 -27,-58 -45,-85 -18,-26 -45,-72 -59,-102 -15,-30 -31,-62 -36,-70 -4,-8 -23,-44 -40,-80 -18,-36 -46,-90 -62,-120 -51,-91 -99,-188 -99,-197 0,-5 -11,-25 -25,-44 -14,-19 -39,-61 -55,-94 -17,-33 -34,-67 -38,-75 -29,-50 -47,-87 -97,-187 -31,-62 -60,-115 -65,-118 -4,-3 -11,-17 -15,-32 -3,-16 -13,-36 -22,-45 -8,-9 -46,-78 -84,-154 -38,-75 -75,-144 -82,-153 -7,-9 -26,-45 -42,-81 -16,-36 -42,-85 -56,-110 -15,-25 -30,-56 -34,-70 -4,-14 -11,-30 -16,-36 -10,-12 54,-152 75,-166 13,-9 33,8 42,35 4,12 19,40 33,62 27,40 131,246 131,258 0,4 16,29 35,56 19,26 35,52 35,56 0,11 102,214 131,260 14,22 40,72 58,110 18,39 39,77 46,85 15,18 105,190 105,201 0,4 23,47 51,96 29,48 74,135 101,193 27,58 55,112 63,120 7,8 52,91 99,184 47,93 92,176 98,185 14,16 40,69 79,156 13,28 39,75 58,105 20,30 55,98 79,150 24,52 52,104 62,115 10,11 21,31 25,44 4,13 22,50 41,82 19,31 34,61 34,66 0,4 9,25 20,45 17,32 17,37 4,42 -21,8 -132,6 -164,-3 z"
       id="path855"
       inkscape:connector-curvature="0" />
    <path style="fill:#bb0a21;stroke:none"
       d="M 2050,6773 V 5082 l 23,-6 c 28,-7 106,-7 135,0 l 22,6 v 1536 1536 l -37,81 c -20,44 -52,101 -70,128 -18,26 -33,51 -33,55 0,5 -9,17 -20,27 -20,18 -20,17 -20,-1672 z"
       id="path857"
       inkscape:connector-curvature="0" />
    <path style="fill:#bb0a21;stroke:none"
       d="m 5812,8418 c -16,-24 -49,-81 -73,-128 l -44,-85 -3,-1562 -2,-1563 26,-6 c 22,-6 146,1 148,9 1,1 0,761 -2,1690 -1,1048 -6,1687 -12,1687 -5,0 -22,-19 -38,-42 z"
       id="path859"
       inkscape:connector-curvature="0" />
    <path
       d="m 5439,7717 c -9,-12 -28,-49 -43,-82 -15,-33 -33,-66 -41,-75 -7,-8 -25,-37 -39,-64 l -26,-49 V 6265 5082 l 23,-6 c 29,-8 87,-8 126,0 l 31,7 -1,1301 c -1,715 -4,1313 -8,1328 l -6,26 z"
       id="path861"
       inkscape:connector-curvature="0" />
    <path
       d="m 2462,7698 c -9,-9 -12,-321 -12,-1314 0,-1178 2,-1302 16,-1308 20,-8 78,-8 124,0 l 35,6 -3,1171 -2,1172 -24,45 c -14,25 -46,89 -73,142 -38,76 -52,95 -61,86 z"
       id="path863"
       inkscape:connector-curvature="0" />
    <path
       d="m 5055,6978 c -21,-33 -92,-159 -122,-218 -17,-33 -18,-90 -23,-854 l -5,-818 23,-9 c 36,-14 142,-11 147,4 3,6 4,443 3,969 l -3,957 z"
       id="path865"
       inkscape:connector-curvature="0" />
    <path
       d="m 2847,6953 c -4,-3 -7,-426 -7,-939 v -932 l 23,-6 c 32,-8 120,-7 135,2 10,7 12,172 10,813 l -3,804 -30,58 c -59,114 -113,207 -119,207 -2,0 -6,-3 -9,-7 z"
       id="path867"
       inkscape:connector-curvature="0" />
  </g>
</svg>
